<?xml version="1.0" standalone="no"?><!DOCTYPE svg PUBLIC "-//W3C//DTD SVG 1.1//EN" "http://www.w3.org/Graphics/SVG/1.1/DTD/svg11.dtd"><svg t="1545834968844" class="icon" style="" viewBox="0 0 1024 1024" version="1.1" xmlns="http://www.w3.org/2000/svg" p-id="4687" xmlns:xlink="http://www.w3.org/1999/xlink" width="200" height="200"><defs><style type="text/css"></style></defs><path d="M709.752188 125.629705h-396.601981c-136.652855 0-247.821204 96.283104-247.821204 214.641177v343.437759c0 118.359096 111.167325 214.704657 247.821204 214.704657h396.601981c136.652855 0 247.82018-96.346585 247.82018-214.704657V340.270882c0-118.358072-111.167325-214.641176-247.82018-214.641177z m205.342249 558.078936c0 98.106644-92.142512 177.850929-205.342249 177.850928h-396.601981c-113.199738 0-205.343274-79.744285-205.343273-177.850928V340.270882c0-98.107668 92.143536-177.850929 205.343273-177.850929h396.601981c113.199738 0 205.34225 79.743261 205.342249 177.850929v343.437759z" fill="" p-id="4688"></path><path d="M332.210856 671.383109c-4.066873 15.219031-15.937799 22.891004-35.578991 22.891004-23.05585 0-33.363303-12.326555-31.005295-36.978642l85.389988-302.875518c5.411234-16.477387 17.972259-24.652087 37.613451-24.652087 19.641192 0.250852 32.202217 8.490057 37.613452 24.652087l85.38794 302.875518c4.06892 24.652087-6.280513 36.978642-31.003247 36.978642-20.65791 0-32.712112-7.671973-36.088886-22.891004l-13.215288-53.706881h-86.914554l-12.19857 53.706881z m84.883165-113.578575l-28.972883-123.703777-29.478682 123.703777h58.451565zM575.675428 329.767866h58.959413c38.957813 0.250852 68.29008 12.451469 87.932295 36.538372 23.379398 29.054794 35.071144 77.605388 35.071145 145.71424 0 60.750188-10.346361 106.219911-31.003248 136.468555-19.64324 30.502568-50.319868 45.78508-92.000192 45.78508h-58.959413c-23.706017 0-35.576943-10.313597-35.576943-30.815876V360.584767c0-20.565761 11.869903-30.816901 35.576943-30.816901z m33.543507 304.635577h25.414882c15.937799-0.313309 27.957189-6.791431 36.088886-19.368839 11.87195-19.117987 17.788984-53.456029 17.788984-103.013102 0-53.456029-5.083591-87.605676-15.248724-102.572832-9.149439-13.206073-22.037084-19.810133-38.63017-19.810134h-25.414881v244.764907z" fill="" p-id="4689"></path></svg>