<?xml version="1.0" standalone="no"?><!DOCTYPE svg PUBLIC "-//W3C//DTD SVG 1.1//EN" "http://www.w3.org/Graphics/SVG/1.1/DTD/svg11.dtd"><svg t="1546704692735" class="icon" style="" viewBox="0 0 1024 1024" version="1.1" xmlns="http://www.w3.org/2000/svg" p-id="3035" xmlns:xlink="http://www.w3.org/1999/xlink" width="200" height="200"><defs><style type="text/css"></style></defs><path d="M120.462071 174.48701 120.462071 174.48701l0 783.503601-55.972802-55.972802L680.193165 902.017808l-55.972802 55.972802L624.220363 174.48701c0-31.022551-25.119097-56.092529-56.240909-56.092529L176.702979 118.394481C145.710105 118.394481 120.462071 143.586233 120.462071 174.48701L120.462071 174.48701zM64.489268 174.48701c0-61.891605 50.385551-112.065332 112.213711-112.065332l391.276475 0c61.97347 0 112.213711 50.068326 112.213711 112.065332l0 783.503601L64.489268 957.99061 64.489268 174.48701 64.489268 174.48701z" p-id="3036"></path><path d="M680.193165 286.313911l0-55.972802 0 727.649502 0-55.972802 279.865036 0-55.972802 55.972802 0-615.549378c0-31.129998-24.964578-56.127322-55.856146-56.127322L680.193165 286.313911zM624.220363 230.341109l224.00889 0c61.761646 0 111.828948 50.01409 111.828948 112.100124l0 615.549378-335.838861 0L624.219339 230.341109 624.220363 230.341109z" p-id="3037"></path><path d="M314.619072 244.333798l111.946628 0 0 111.946628-111.946628 0 0-111.946628Z" p-id="3038"></path><path d="M314.619072 440.23963l111.946628 0 0 111.946628-111.946628 0 0-111.946628Z" p-id="3039"></path><path d="M734.417137 440.23963l111.946628 0 0 111.946628-111.946628 0 0-111.946628Z" p-id="3040"></path><path d="M734.417137 636.145461l111.946628 0 0 111.946628-111.946628 0 0-111.946628Z" p-id="3041"></path><path d="M314.619072 636.145461l111.946628 0 0 111.946628-111.946628 0 0-111.946628Z" p-id="3042"></path></svg>