<?xml version="1.0" standalone="no"?><!DOCTYPE svg PUBLIC "-//W3C//DTD SVG 1.1//EN" "http://www.w3.org/Graphics/SVG/1.1/DTD/svg11.dtd"><svg t="1545926124270" class="icon" style="" viewBox="0 0 1024 1024" version="1.1" xmlns="http://www.w3.org/2000/svg" p-id="1899" xmlns:xlink="http://www.w3.org/1999/xlink" width="200" height="200"><defs><style type="text/css"></style></defs><path d="M314.87588 346.649382" p-id="1900"></path><path d="M639.051524 1024c-8.777877 0-17.213971-3.259214-23.765144-9.171848L307.846825 738.142888 130.856669 738.142888c-52.590513 0-130.833137-34.849542-130.833137-130.848486L0.023532 416.733227c0-52.596652 34.844425-130.848486 130.833137-130.848486l176.915455 0L615.233168 9.135009c6.508195-5.891144 14.945312-9.133985 23.744678-9.133985 5.007012 0 9.885088 1.038651 14.508363 3.084229 12.825033 5.71002 21.102515 18.460352 21.102515 32.489809l0 952.873411c0 14.08267-8.266226 26.839141-21.059536 32.494926C649.086014 1022.93986 644.080025 1024 639.051524 1024zM130.856669 356.993933c-44.047995 0-59.738271 30.859691-59.738271 59.738271l0 190.561175c0 44.053112 30.859691 59.744411 59.738271 59.744411l190.571408 0c8.852578 0 17.288672 3.259214 23.776401 9.171848l258.28938 232.397816L603.493858 115.424269 345.247456 347.816969c-6.551174 5.91161-15.020013 9.176964-23.818356 9.176964L130.856669 356.993933zM924.908635 896.948984c-9.469628 0-18.40714-3.685931-25.150694-10.380366L772.696692 759.506345c-6.710809-6.700576-10.396739-15.621714-10.396739-25.129205 0-9.502374 3.685931-18.428629 10.396739-25.134321 6.700576-6.705692 15.616598-10.401856 25.129205-10.401856 9.512607 0 18.428629 3.696164 25.129205 10.401856l127.051016 127.056133c6.710809 6.689319 10.396739 15.616598 10.396739 25.129205 0 9.512607-3.685931 18.438862-10.396739 25.134321C943.327032 893.257937 934.411009 896.948984 924.908635 896.948984zM797.857619 547.560224c-19.600309 0-35.547433-15.947124-35.547433-35.547433 0-19.605425 15.947124-35.557666 35.547433-35.557666l190.582664 0c19.600309 0 35.536177 15.952241 35.536177 35.557666 0 19.600309-15.935868 35.547433-35.536177 35.547433L797.857619 547.560224zM797.857619 325.228621c-9.32125 0-18.481841-3.781098-25.150694-10.365017-13.869823-13.880056-13.869823-36.436682-0.010233-50.290132l127.051016-127.051016c6.689319-6.705692 15.616598-10.401856 25.129205-10.401856 9.512607 0 18.428629 3.696164 25.129205 10.401856 6.710809 6.695459 10.396739 15.621714 10.396739 25.134321 0 9.512607-3.685931 18.438862-10.396739 25.134321L822.955102 314.836998C816.254526 321.537574 807.348737 325.228621 797.857619 325.228621z" p-id="1901"></path></svg>