<?xml version="1.0" standalone="no"?><!DOCTYPE svg PUBLIC "-//W3C//DTD SVG 1.1//EN" "http://www.w3.org/Graphics/SVG/1.1/DTD/svg11.dtd"><svg t="1546441386569" class="icon" style="" viewBox="0 0 1024 1024" version="1.1" xmlns="http://www.w3.org/2000/svg" p-id="1697" xmlns:xlink="http://www.w3.org/1999/xlink" width="200" height="200"><defs><style type="text/css"></style></defs><path d="M964.909037037037 403.8704761904761L964.909037037037 135.48799999999983c-7.105427357601002e-15-39.9471746031746-30.730158730158745-72.6359365079365-70.74031746031747-72.6359365079365l-262.75758730158725 2.842170943040401e-14c-40.03453968253968 7.105427357601002e-15-76.8223492063492 32.688761904761904-76.82234920634919 72.63593650793652l5.684341886080802e-14 268.37942857142855c7.105427357601002e-15 39.96952380952381 36.788825396825416 72.65930158730157 76.82234920634922 72.65930158730157l262.75555555555553-5.684341886080802e-14c40.012190476190476-7.105427357601002e-15 70.74234920634919-32.688761904761904 70.74234920634919-72.65828571428573z m-337.55428571428564 5.684341886080802e-14L627.3547513227513 135.48799999999994 894.1677037037036 135.48799999999994l5.684341886080802e-14 268.37942857142855-266.81295238095237 5.684341886080802e-14z m-147.5382857142857 2.842170943040401e-14L479.81646560846565 135.488c-7.105427357601002e-15-39.9471746031746-32.75580952380953-72.6359365079365-72.76495238095238-72.63593650793649l-264.7862857142857 2.842170943040401e-14c-40.03352380952381 7.105427357601002e-15-72.76495238095237 32.68876190476192-72.76495238095235 72.63593650793652l5.684341886080802e-14 268.37942857142855c7.105427357601002e-15 39.96952380952381 32.73142857142858 72.65930158730158 72.7649523809524 72.65930158730157L407.0515132275132 476.5267301587301c40.009142857142855-7.105427357601002e-15 72.76495238095237-32.68876190476192 72.76495238095237-72.65828571428573z m-337.5512380952381 5.684341886080802e-14L142.26522751322761 135.4880000000001 409.07614814814815 135.48800000000006l5.684341886080802e-14 268.37942857142855-266.8109206349206 2.842170943040401e-14zM964.9100529100531 888.1737142857144L964.9100529100529 621.8219682539682c-7.105427357601002e-15-39.96850793650793-30.730158730158745-74.66260317460316-70.74031746031747-74.66260317460315L627.3557671957672 547.159365079365c-40.01015873015873 7.105427357601002e-15-72.7669841269841 34.694095238095244-72.76698412698411 74.66260317460316l5.684341886080802e-14 266.35276190476185c7.105427357601002e-15 39.96952380952381 32.75580952380953 72.66031746031746 72.76698412698411 72.66031746031744L894.1677037037036 960.8350476190474c40.0111746031746-3.552713678800501e-15 70.74133333333332-32.69079365079366 70.74133333333332-72.66031746031746z m-337.55428571428564 5.684341886080802e-14L627.3557671957673 621.8219682539682 894.1677037037036 621.8219682539682l5.684341886080802e-14 266.35276190476185-266.81295238095237 5.684341886080802e-14z m-147.5382857142857-8.061968253968232l-2.842170943040401e-14-260.3174603174603c-7.105427357601002e-15-39.9471746031746-32.75580952380953-72.6359365079365-72.76495238095238-72.63593650793649l-264.7862857142857 2.842170943040401e-14c-40.03352380952381 7.105427357601002e-15-72.76495238095237 32.68876190476192-72.76495238095235 72.63593650793652l5.684341886080802e-14 268.37942857142855c7.105427357601002e-15 39.96952380952381 32.73142857142858 72.66031746031746 72.76495238095238 72.66031746031743L407.0515132275133 960.8340317460318c40.009142857142855-7.105427357601002e-15 72.76495238095237-40.77714285714287 72.76495238095235-80.72126984126984z m-337.5512380952381 8.061968253968303L142.26624338624345 621.8219682539683 407.05151322751317 621.8219682539682l5.684341886080802e-14 266.35276190476185-264.7862857142857 2.842170943040401e-14z" p-id="1698"></path></svg>