<?xml version="1.0" standalone="no"?><!DOCTYPE svg PUBLIC "-//W3C//DTD SVG 1.1//EN" "http://www.w3.org/Graphics/SVG/1.1/DTD/svg11.dtd"><svg t="1546874349553" class="icon" style="" viewBox="0 0 1024 1024" version="1.1" xmlns="http://www.w3.org/2000/svg" p-id="2004" xmlns:xlink="http://www.w3.org/1999/xlink" width="200" height="200"><defs><style type="text/css"></style></defs><path d="M752 976 256 976c-54.4 0-104-41.6-113.6-96L70.4 444.8c-4.8-27.2 1.6-54.4 19.2-75.2 17.6-20.8 43.2-32 70.4-32L848 337.6c27.2 0 54.4 11.2 70.4 32 17.6 20.8 24 48 19.2 75.2L865.6 880C856 934.4 806.4 976 752 976L752 976 752 976zM160 406.4c-8 0-14.4 3.2-19.2 8-4.8 4.8-6.4 12.8-4.8 20.8L208 868.8c3.2 20.8 25.6 40 48 40L752 908.8c22.4 0 43.2-19.2 48-40l72-433.6c1.6-8 0-16-4.8-20.8-4.8-4.8-11.2-8-19.2-8L160 406.4 160 406.4 160 406.4zM300.8 606.4c-36.8 0-67.2-30.4-67.2-67.2 0-36.8 30.4-67.2 67.2-67.2 36.8 0 67.2 30.4 67.2 67.2C368 576 337.6 606.4 300.8 606.4L300.8 606.4 300.8 606.4zM300.8 539.2C300.8 539.2 300.8 539.2 300.8 539.2l0 33.6L300.8 539.2 300.8 539.2 300.8 539.2zM704 606.4c-36.8 0-67.2-30.4-67.2-67.2 0-36.8 30.4-67.2 67.2-67.2 36.8 0 67.2 30.4 67.2 67.2C771.2 576 740.8 606.4 704 606.4L704 606.4 704 606.4zM704 539.2 704 539.2l0 33.6L704 539.2 704 539.2 704 539.2zM737.6 305.6c-19.2 0-33.6-14.4-33.6-33.6 0-96-107.2-168-203.2-168-97.6 0-198.4 62.4-198.4 166.4 0 19.2-14.4 33.6-33.6 33.6-19.2 0-33.6-14.4-33.6-33.6 0-145.6 136-233.6 265.6-233.6 128 0 268.8 96 268.8 233.6C771.2 291.2 756.8 305.6 737.6 305.6L737.6 305.6 737.6 305.6zM737.6 305.6" p-id="2005"></path></svg>