<?xml version="1.0" standalone="no"?><!DOCTYPE svg PUBLIC "-//W3C//DTD SVG 1.1//EN" "http://www.w3.org/Graphics/SVG/1.1/DTD/svg11.dtd"><svg t="1547255856799" class="icon" style="" viewBox="0 0 1024 1024" version="1.1" xmlns="http://www.w3.org/2000/svg" p-id="2133" xmlns:xlink="http://www.w3.org/1999/xlink" width="200" height="200"><defs><style type="text/css"></style></defs><path d="M1004.3648 424.36608c-3.41504-18.66752-7.99232-37.25312-13.49632-55.23968-6.66624-21.71904-29.62944-34.04288-51.34848-27.264-21.71904 6.66624-33.92 29.62944-27.25888 51.34848 4.5824 14.976 8.39168 30.47424 11.24864 46.01856 7.30112 39.86432 8.70912 80.896 4.13184 121.92768-19.79392 178.6624-162.15552 329.30304-338.52416 358.25152-134.33344 21.95456-265.73312-19.79392-360.64256-114.66752-94.86336-94.91456-136.65792-226.36032-114.61632-360.65792 28.8256-176.04608 173.07648-314.88512 350.72512-337.65376 142.16192-18.38592 280.79104 36.17792 371.28192 145.46432 14.49472 17.46432 40.38656 19.95264 57.89184 5.45792 17.50528-14.49472 19.9168-40.43264 5.45792-57.89696C790.5792 68.33152 624.32768 3.16928 454.14912 24.85248 240.68096 52.23424 67.4048 219.13088 32.7168 430.75072c-26.37824 160.75264 23.76704 318.2592 137.62048 432.12288 93.94688 93.94688 217.6 144.5376 348.27776 144.5376 27.6992 0 55.72608-2.28864 83.82976-6.86592 215.42912-35.328 382.76096-212.30592 406.93248-430.3104C1014.84032 521.25184 1013.15584 472.14592 1004.3648 424.36608zM829.66016 259.75296l-251.33568 0c-1.6896-8.36608-5.02784-20.93056-10.05568-37.69856-3.37408-11.70432-5.888-20.10624-7.54176-25.13408L482.816 204.46208c3.33824 6.71744 7.54176 17.59744 12.5696 32.67072 3.33824 10.05568 5.85216 17.59744 7.54176 22.62016L228.97152 259.75296l0 52.77696 397.1072 0c-1.6896 3.3792-4.20352 7.54176-7.54176 12.5696-18.4576 30.1568-33.54112 51.95264-45.24032 65.34656L465.2288 390.44608l17.59232-2.51392c-1.68448-1.64864-3.37408-4.16256-5.02784-7.53664-18.4576-30.16192-34.36032-51.92192-47.74912-65.35168L367.2064 327.61344c10.05568 16.768 24.2688 37.69856 42.7264 62.83264L264.16128 390.44608l0 407.16288 65.34656 0 0-258.87232c1.65376 3.37408 5.02784 8.40192 10.05568 15.0784 10.05568 15.08352 16.72704 25.13408 20.10624 30.16192l47.75424-30.16192 0 168.3968 243.79392 0 0-175.93344 50.26816 35.18976 27.648-42.7264 0 158.34112c3.33824 23.48544-10.05568 34.31936-40.21248 32.67072l-75.40224 0c3.33824 10.05568 6.67648 23.44448 10.05568 40.21248 1.64864 8.36608 3.33824 15.08352 5.02784 20.10624 11.6992 0 26.7776-0.86016 45.2352-2.51392l40.21248 0c55.296 1.65376 82.07872-25.13408 80.42496-80.42496L794.47552 390.44608l-145.77152 0c5.02784-6.67648 12.5696-17.59232 22.62016-32.67072 10.05056-13.39392 16.72704-23.44448 20.10624-30.1568l-62.83264-15.08352 201.06752 0L829.66528 259.75296zM595.9168 671.93856 465.2288 671.93856l0-77.91104 130.688 0L595.9168 671.93856zM729.12384 443.22816l0 87.96672c-53.64224-35.18464-98.88256-64.48128-135.72096-87.96672l-37.69856 40.21248c11.70432 8.40192 27.648 19.28192 47.75424 32.67072 20.10624 13.42976 34.32448 22.62016 42.7264 27.648l-226.2016 0c15.0784-8.3712 36.00896-23.44448 62.83264-45.24032 8.36608-6.67648 15.08352-11.70432 20.10624-15.08352l-40.21248-40.21248c-45.24032 36.87424-89.65632 67.86048-133.20704 92.99456L329.50272 443.22816l133.20704 0 130.688 0L729.12384 443.22816z" p-id="2134"></path></svg>