<?xml version="1.0" standalone="no"?><!DOCTYPE svg PUBLIC "-//W3C//DTD SVG 1.1//EN" "http://www.w3.org/Graphics/SVG/1.1/DTD/svg11.dtd"><svg t="1547313616115" class="icon" style="" viewBox="0 0 1024 1024" version="1.1" xmlns="http://www.w3.org/2000/svg" p-id="2878" xmlns:xlink="http://www.w3.org/1999/xlink" width="200" height="200"><defs><style type="text/css"></style></defs><path d="M896.696889 316.288c-0.440889-0.611556-0.711111-1.308444-1.194667-1.877333L663.310222 41.201778c-0.270222-0.298667-0.625778-0.469333-0.896-0.768a28.344889 28.344889 0 0 0-25.329778-15.758222H208.625778a70.528 70.528 0 0 0-70.442667 70.428444v826.254222a70.528 70.528 0 0 0 70.442667 70.428445h627.114666a70.528 70.528 0 0 0 70.442667-70.428445V337.365333a28.302222 28.302222 0 0 0-9.486222-21.077333z m-228.693333-77.880889l1.180444-102.428444 145.294222 170.965333c-8.533333 0.184889-17.578667 0.298667-26.88 0.298667-33.792 0-61.482667-1.521778-82.289778-4.536889-39.395556-5.731556-37.447111-60.913778-37.304888-64.298667z m167.736888 696.490667H208.625778a13.568 13.568 0 0 1-13.553778-13.539556V95.118222c0-7.466667 6.087111-13.539556 13.553778-13.539555h404.309333l-1.777778 154.979555c-2.019556 37.731556 13.340444 111.886222 85.987556 122.439111 23.523556 3.399111 53.959111 5.12 90.453333 5.12h0.014222c23.68 0 45.596444-0.725333 61.681778-1.450666v558.677333a13.553778 13.553778 0 0 1-13.553778 13.553778z" fill="#7F60BC" p-id="2879"></path><path d="M272.483556 371.100444h204.145777a28.444444 28.444444 0 0 0 0-56.888888H272.483556a28.444444 28.444444 0 0 0 0 56.888888zM272.483556 497.578667h204.145777a28.444444 28.444444 0 0 0 0-56.888889H272.483556a28.444444 28.444444 0 0 0 0 56.888889zM723.797333 564.266667H272.483556a28.444444 28.444444 0 0 0 0 56.888889h451.299555a28.444444 28.444444 0 0 0 0.014222-56.888889zM723.797333 694.229333H272.483556a28.444444 28.444444 0 0 0 0 56.888889h451.299555a28.444444 28.444444 0 0 0 0.014222-56.888889z" fill="#7F60BC" p-id="2880"></path></svg>