<?xml version="1.0" standalone="no"?><!DOCTYPE svg PUBLIC "-//W3C//DTD SVG 1.1//EN" "http://www.w3.org/Graphics/SVG/1.1/DTD/svg11.dtd"><svg t="1545923068400" class="icon" style="" viewBox="0 0 1024 1024" version="1.1" xmlns="http://www.w3.org/2000/svg" p-id="1334" xmlns:xlink="http://www.w3.org/1999/xlink" width="200" height="200"><defs><style type="text/css"></style></defs><path d="M652.8 305.066667H371.2l-46.933333-115.2c-6.4-14.933333-4.266667-32 4.266666-46.933334s25.6-21.333333 40.533334-21.333333h283.733333c17.066667 0 32 8.533333 40.533333 21.333333s10.666667 29.866667 4.266667 46.933334l-44.8 115.2z m-253.866667-42.666667h224l36.266667-89.6c2.133333-2.133333 0-4.266667 0-6.4 0-2.133333-2.133333-2.133333-6.4-2.133333H371.2c-2.133333 0-4.266667 2.133333-6.4 2.133333 0 2.133333-2.133333 4.266667 0 6.4l34.133333 89.6zM693.333333 642.133333h-362.666666c-19.2 0-36.266667-10.666667-44.8-27.733333-8.533333-17.066667-6.4-38.4 6.4-53.333333l83.2-102.4h273.066666l83.2 102.4c12.8 14.933333 14.933333 34.133333 6.4 53.333333-8.533333 17.066667-25.6 27.733333-44.8 27.733333z m-298.666666-140.8l-70.4 87.466667c-2.133333 2.133333-2.133333 6.4 0 6.4 0 2.133333 2.133333 4.266667 6.4 4.266667h360.533333c4.266667 0 6.4-2.133333 6.4-4.266667s2.133333-4.266667 0-6.4l-70.4-87.466667H394.666667z" fill="#0071F0" p-id="1335"></path><path d="M659.2 501.333333H364.8V262.4H661.333333v238.933333z m-251.733333-42.666666H618.666667v-153.6h-211.2v153.6zM512 902.4c-14.933333-14.933333-23.466667-32-25.6-53.333333L469.333333 620.8h85.333334l-17.066667 228.266667c-2.133333 21.333333-10.666667 40.533333-25.6 53.333333zM614.4 571.733333h-234.666667c-6.4 0-10.666667-4.266667-10.666666-10.666666s4.266667-10.666667 10.666666-10.666667h234.666667c6.4 0 10.666667 4.266667 10.666667 10.666667s-4.266667 10.666667-10.666667 10.666666z" fill="#0071F0" p-id="1336"></path></svg>