<?xml version="1.0" standalone="no"?><!DOCTYPE svg PUBLIC "-//W3C//DTD SVG 1.1//EN" "http://www.w3.org/Graphics/SVG/1.1/DTD/svg11.dtd"><svg t="1544188355061" class="icon" style="" viewBox="0 0 1024 1024" version="1.1" xmlns="http://www.w3.org/2000/svg" p-id="3014" xmlns:xlink="http://www.w3.org/1999/xlink" width="64" height="64"><defs><style type="text/css"></style></defs><path d="M1011.264 431.573333c-19.008-117.973333-77.589333-222.208-163.989333-298.368-0.170667-0.149333-0.341333-0.298667-0.490667-0.448-6.933333-6.101333-14.122667-11.989333-21.44-17.728-1.173333-0.917333-2.261333-1.877333-3.434667-2.773333-6.464-4.970667-13.098667-9.728-19.818667-14.4-2.197333-1.514667-4.309333-3.114667-6.528-4.608-5.909333-3.989333-12.010667-7.744-18.154667-11.52-3.157333-1.962667-6.293333-3.989333-9.536-5.866667-2.666667-1.557333-5.354667-3.093333-8.064-4.586667l162.794667-26.218667c11.648-1.877333 19.541333-12.842667 17.664-24.469333-1.877333-11.626667-12.885333-19.541333-24.448-17.664L696.64 38.229333c-10.944 1.770667-20.522667 7.701333-27.008 16.661333-6.506667 9.002667-9.109333 19.989333-7.338667 30.912L697.6 304.981333c1.685333 10.474667 10.752 17.941333 21.034667 17.941333 1.130667 0 2.261333-0.085333 3.413333-0.277333 11.626667-1.877333 19.541333-12.821333 17.664-24.448L705.322667 91.52c4.949333 2.282667 9.962667 4.522667 14.784 6.976 3.413333 1.706667 6.698667 3.562667 10.048 5.333333 5.504 2.944 11.029333 5.866667 16.405333 9.002667 2.581333 1.514667 5.077333 3.157333 7.637333 4.714667 5.952 3.626667 11.904 7.296 17.642667 11.2 1.685333 1.130667 3.285333 2.346667 4.970667 3.52 6.485333 4.501333 12.906667 9.088 19.114667 13.888 0.725333 0.554667 1.386667 1.152 2.112 1.706667 90.602667 70.912 152.256 173.632 171.114667 290.581333 3.797333 23.616 5.738667 47.104 5.909333 70.314667 1.685333 224.597333-161.024 423.573333-389.418667 460.352-11.626667 1.877333-19.541333 12.821333-17.664 24.448 1.685333 10.474667 10.752 17.941333 21.034667 17.941333 1.130667 0 2.261333-0.085333 3.413333-0.277333 8.597333-1.386667 17.130667-2.986667 25.536-4.8 235.968-50.389333 401.536-261.141333 399.744-497.962667C1017.536 483.093333 1015.445333 457.408 1011.264 431.573333z" p-id="3015"></path><path d="M431.616 12.778667c-32.085333 5.162667-63.168 13.418667-93.056 24.277333-1.152 0.426667-2.389333 0.704-3.541333 1.130667-40.682667 15.104-78.72 35.797333-113.941333 60.650667-45.184 31.872-85.568 70.912-118.912 117.034667-64.277333 88.96-97.28 193.92-95.872 301.674667 0.32 24.874667 2.474667 49.898667 6.506667 74.922667 0.021333 0.149333 0.064 0.298667 0.085333 0.448 2.346667 14.549333 5.525333 28.821333 9.088 42.944 0.896 3.605333 1.792 7.168 2.773333 10.730667 3.776 13.781333 7.978667 27.349333 12.864 40.64 0.874667 2.368 1.898667 4.693333 2.816 7.04 4.437333 11.541333 9.301333 22.826667 14.528 33.941333 1.557333 3.306667 3.072 6.656 4.693333 9.92 6.250667 12.565333 12.992 24.832 20.245333 36.8 1.472 2.410667 3.072 4.8 4.586667 7.189333 7.104 11.285333 14.634667 22.272 22.613333 32.938667 1.024 1.344 1.962667 2.773333 3.008 4.117333 9.258667 12.096 19.136 23.722667 29.461333 34.965333 1.109333 1.216 2.218667 2.368 3.349333 3.562667 21.546667 22.954667 45.290667 43.946667 71.04 62.677333 0.661333 0.469333 1.237333 1.045333 1.898667 1.514667 0.192 0.149333 0.426667 0.192 0.64 0.32 15.317333 11.008 31.296 21.184 47.936 30.506667l-163.029333 26.261333c-11.626667 1.877333-19.541333 12.821333-17.664 24.448 1.685333 10.474667 10.752 17.941333 21.034667 17.941333 1.130667 0 2.261333-0.085333 3.434667-0.277333l219.157333-35.306667c10.922667-1.749333 20.522667-7.637333 27.029333-16.618667 6.506667-9.002667 9.109333-19.989333 7.36-30.933333l-35.306667-219.178667c-1.877333-11.626667-12.821333-19.456-24.469333-17.642667-11.626667 1.898667-19.541333 12.864-17.642667 24.469333l34.432 206.656c-28.416-13.034667-55.061333-28.714667-79.722667-46.677333-23.594667-17.237333-45.248-36.394667-64.853333-57.216-1.066667-1.152-2.176-2.282667-3.242667-3.434667-9.450667-10.24-18.410667-20.885333-26.858667-31.872-1.002667-1.322667-1.92-2.666667-2.922667-4.010667-7.253333-9.664-14.058667-19.669333-20.501333-29.845333-1.429333-2.261333-2.944-4.501333-4.330667-6.784-6.634667-10.922667-12.757333-22.122667-18.474667-33.557333-1.514667-3.050667-2.922667-6.165333-4.394667-9.258667-4.757333-10.090667-9.173333-20.330667-13.184-30.784-0.853333-2.218667-1.834667-4.416-2.666667-6.677333-4.437333-12.117333-8.298667-24.533333-11.733333-37.098667-0.896-3.285333-1.749333-6.613333-2.581333-9.92-3.242667-12.885333-6.144-25.941333-8.298667-39.232-0.021333-0.170667-0.064-0.341333-0.085333-0.490667-4.906667-30.528-6.784-61.034667-5.696-91.242667 3.264-90.666667 33.194667-178.325333 87.509333-253.504 54.314667-75.178667 128.170667-131.136 213.205333-162.709333 28.352-10.517333 57.941333-18.325333 88.469333-23.253333 11.626667-1.877333 19.541333-12.821333 17.664-24.448C454.208 18.816 443.264 10.794667 431.616 12.778667z" p-id="3016"></path></svg>