<?xml version="1.0" standalone="no"?><!DOCTYPE svg PUBLIC "-//W3C//DTD SVG 1.1//EN" "http://www.w3.org/Graphics/SVG/1.1/DTD/svg11.dtd"><svg t="1546355090560" class="icon" style="" viewBox="0 0 1024 1024" version="1.1" xmlns="http://www.w3.org/2000/svg" p-id="3341" xmlns:xlink="http://www.w3.org/1999/xlink" width="200" height="200"><defs><style type="text/css"></style></defs><path d="M512 972.8c-217.6 0-390.4-70.4-390.4-166.4 0-70.4 89.6-128 236.8-153.6C320 614.4 294.4 582.4 281.6 563.2 230.4 505.6 198.4 435.2 198.4 358.4c0-172.8 140.8-307.2 313.6-307.2 172.8 0 313.6 140.8 313.6 307.2 0 76.8-32 153.6-83.2 211.2-12.8 19.2-44.8 44.8-76.8 96 147.2 25.6 236.8 83.2 236.8 153.6C902.4 902.4 729.6 972.8 512 972.8zM384 684.8c-134.4 19.2-230.4 70.4-230.4 121.6 0 64 140.8 134.4 358.4 134.4 211.2 0 358.4-70.4 358.4-134.4 0-51.2-96-102.4-230.4-121.6-6.4 12.8-19.2 25.6-32 38.4 51.2 6.4 128 25.6 128 76.8 0 108.8-441.6 108.8-441.6 0 0-44.8 76.8-64 128-76.8 0 0-6.4-6.4-6.4-6.4-6.4-6.4-12.8-19.2-19.2-25.6L384 684.8zM441.6 755.2C358.4 768 320 787.2 320 800c0 19.2 64 51.2 192 51.2 121.6 0 192-32 192-51.2 0-12.8-32-32-115.2-44.8-25.6 32-44.8 51.2-44.8 57.6-12.8 19.2-38.4 19.2-57.6 0C486.4 812.8 467.2 787.2 441.6 755.2zM480 755.2C499.2 774.4 512 793.6 512 793.6l19.2 12.8L512 793.6c0 0 25.6-32 51.2-64l0 0 0 0c12.8-12.8 25.6-32 38.4-44.8l0 0 19.2-19.2c44.8-57.6 83.2-96 96-115.2 51.2-51.2 76.8-115.2 76.8-185.6 0-153.6-128-275.2-281.6-275.2S230.4 204.8 230.4 358.4c0 70.4 25.6 134.4 76.8 185.6C320 563.2 352 595.2 396.8 652.8l0 0 6.4 6.4c0 0 6.4 6.4 6.4 6.4 19.2 19.2 32 44.8 51.2 64L480 755.2 480 755.2zM512 537.6c-102.4 0-185.6-83.2-185.6-179.2C326.4 256 409.6 172.8 512 172.8s185.6 83.2 185.6 179.2C697.6 454.4 614.4 537.6 512 537.6zM512 204.8c-83.2 0-153.6 70.4-153.6 147.2 0 83.2 70.4 147.2 153.6 147.2s153.6-70.4 153.6-147.2C665.6 275.2 595.2 204.8 512 204.8z" p-id="3342"></path></svg>