<?xml version="1.0" standalone="no"?><!DOCTYPE svg PUBLIC "-//W3C//DTD SVG 1.1//EN" "http://www.w3.org/Graphics/SVG/1.1/DTD/svg11.dtd"><svg t="1546755030624" class="icon" style="" viewBox="0 0 1024 1024" version="1.1" xmlns="http://www.w3.org/2000/svg" p-id="3789" xmlns:xlink="http://www.w3.org/1999/xlink" width="200" height="200"><defs><style type="text/css"></style></defs><path d="M179.2 978.432c-45.056 0-81.408-36.352-81.408-80.896L97.28 519.168c0-7.168 2.56-13.312 7.68-18.432s11.776-7.68 18.432-7.68c14.336 0 26.112 11.776 26.112 26.112l0.512 378.368c0 15.872 12.8 28.672 29.184 28.672l664.576-0.512c15.872 0 29.184-12.8 29.184-29.184V515.072c0-14.336 11.776-26.112 26.112-26.112s26.112 11.776 26.112 26.112v381.44c0 44.544-36.352 80.896-81.408 80.896l-664.576 1.024z" fill="" p-id="3790"></path><path d="M216.064 562.176c-30.72 0-58.368-5.632-82.432-17.408v-3.584h-7.168C67.584 508.928 30.72 446.976 30.72 379.392c0-19.456 3.072-38.912 9.216-57.344v-1.024c0.512-1.536 1.024-2.56 1.024-3.584l89.088-209.408v-0.512c12.288-37.376 47.616-60.416 91.648-60.416h581.12c45.056 0 82.432 24.576 95.232 62.464v0.512l82.944 205.312c0.512 1.536 1.024 2.56 1.536 4.096V321.024l0.512 0.512c6.144 17.92 9.216 37.376 8.704 56.32 0 67.584-36.864 129.536-96.256 161.792-25.088 13.824-54.784 20.48-88.576 20.992-54.784 0-106.496-24.064-141.312-65.536l-7.168-8.192-7.168 8.192c-34.816 40.96-85.504 65.024-139.776 65.536-54.272-0.512-105.472-24.064-140.288-65.536l-7.168-8.192-7.168 8.192c-34.816 43.008-86.016 66.56-140.8 67.072zM155.648 497.152c16.896 8.704 36.864 12.8 60.416 12.8 46.08 0 88.064-23.552 112.64-62.464l0.512-0.512 0.512-0.512c1.536-3.072 3.584-8.192 8.192-13.312v-0.512c5.12-6.144 15.36-9.728 26.112-9.728 11.776 0 22.016 4.096 28.16 11.264 3.072 3.584 5.632 8.192 7.168 11.264l0.512 0.512v0.512c24.576 39.424 66.048 62.976 112.128 62.976 45.568-0.512 87.04-24.064 111.616-62.976l0.512-0.512V445.44c1.536-3.072 4.096-7.68 7.68-12.288 5.632-7.168 15.872-11.264 27.136-11.264 14.336 0 22.528 6.144 27.136 11.264 4.096 4.608 6.656 9.728 7.68 12.288v0.512l0.512 0.512c24.576 39.424 66.56 62.976 112.64 62.976 24.576 0 46.08-5.12 63.488-14.336 43.008-23.552 69.12-68.096 69.12-116.224 0-14.336-2.56-28.672-7.168-43.008-0.512-1.024-0.512-2.048-1.024-3.072v-0.512L848.896 128c-9.216-26.624-35.328-28.16-45.056-28.672H221.696c-22.016 0-36.864 9.216-43.008 27.136L91.136 333.312v0.512c0 1.024-0.512 1.536-0.512 2.048-4.608 14.336-7.168 28.672-7.168 43.008 0 49.152 27.136 93.696 70.656 116.736l1.536 1.536zM222.72 344.576c-14.336 0-26.112-11.776-26.112-26.112s11.776-26.112 26.112-26.112h565.248c14.336 0 26.112 11.776 26.112 26.112s-11.776 26.112-26.112 26.112H222.72z" fill="" p-id="3791"></path></svg>